<svg xmlns="http://www.w3.org/2000/svg" width="15.63" height="16" viewBox="0 0 23.45 24">
  <g fill="#5E6573">
      <path d="m21.77,21.55l-7.86-11.42-.89-1.29L7.4.68l-.47-.68H.03l1.68,2.45,7.47,10.86.89,1.29,6.01,8.73.47.68h6.91l-1.68-2.45Zm-4.4.89l-6.24-9.07-.89-1.29L3,1.56h3.11l5.86,8.51.89,1.29,7.62,11.08h-3.11Z"/>
      <polygon points="10.24 12.08 11.13 13.37 10.07 14.6 1.99 24 0 24 9.19 13.31 10.24 12.08"/>
      <polygon points="22.62 0 13.91 10.13 12.86 11.36 11.97 10.07 13.02 8.84 18.92 1.98 20.63 0 22.62 0"/>
  </g>
</svg>